<svg width="20" height="18" viewBox="0 0 20 18" fill="none" xmlns="http://www.w3.org/2000/svg">
<g opacity="0.5">
<path d="M19.0203 13.3102C18.8892 13.7119 18.6054 14.0459 18.2303 14.2402C17.0203 15.0102 15.8203 15.7902 14.6303 16.5902C14.1004 16.9471 13.4872 17.1607 12.8503 17.2102C11.3403 17.3402 9.85026 17.5002 8.34026 17.6402C7.93026 17.6402 7.53026 17.7302 7.12026 17.7602C6.6373 17.8065 6.15072 17.7236 5.71026 17.5202L3.05026 16.3302C2.86026 16.2502 2.86026 16.2502 2.86026 16.4702C2.86525 16.5568 2.86525 16.6437 2.86026 16.7302C2.83438 16.9125 2.7449 17.0796 2.60765 17.2022C2.4704 17.3248 2.29422 17.395 2.11026 17.4002H0.780255C0.676119 17.4003 0.573032 17.3795 0.477071 17.339C0.381109 17.2986 0.294218 17.2393 0.22152 17.1648C0.148823 17.0902 0.0917896 17.0018 0.0537881 16.9049C0.0157867 16.8079 -0.00241366 16.7043 0.000256494 16.6002V10.2302C-0.00244351 10.124 0.016327 10.0182 0.0554475 9.91939C0.094568 9.82056 0.153234 9.73062 0.227929 9.65499C0.302624 9.57936 0.391809 9.51962 0.490151 9.47927C0.588494 9.43893 0.693968 9.41881 0.800256 9.42019H2.06025C2.16475 9.41744 2.26871 9.43603 2.3658 9.47475C2.46289 9.51348 2.55108 9.57156 2.62499 9.64547C2.69891 9.71938 2.757 9.80759 2.79573 9.90469C2.83446 10.0018 2.85301 10.1057 2.85026 10.2102C2.85026 10.3502 2.90026 10.3802 3.03026 10.3802C3.58188 10.3553 4.13461 10.3855 4.68026 10.4702C5.36507 10.5853 6.02073 10.8333 6.61026 11.2002C7.26575 11.6148 8.01596 11.8557 8.79025 11.9002C9.61025 11.9702 10.4203 12.0702 11.2403 12.1902C11.6331 12.251 11.9903 12.4533 12.2444 12.7591C12.4986 13.0648 12.6322 13.4529 12.6203 13.8502C12.6203 14.0302 12.7203 13.9802 12.8103 13.9702C13.4311 13.8859 14.033 13.6966 14.5903 13.4102L17.2903 12.0502C17.4481 11.9696 17.6219 11.9254 17.799 11.9206C17.9761 11.9157 18.1521 11.9506 18.314 12.0224C18.476 12.0943 18.6198 12.2014 18.7351 12.336C18.8504 12.4705 18.9341 12.6291 18.9803 12.8002C18.9763 12.8334 18.9763 12.867 18.9803 12.9002L19.0203 13.3102ZM0.560254 13.4002V16.5202C0.560254 16.7702 0.630254 16.8502 0.880254 16.8502H1.97025C2.23025 16.8502 2.30026 16.7702 2.30026 16.5102V15.1602C2.29461 15.1198 2.29758 15.0785 2.30896 15.0393C2.32035 15 2.3399 14.9637 2.36634 14.9325C2.39278 14.9014 2.4255 14.8761 2.46237 14.8585C2.49923 14.8409 2.53941 14.8312 2.58025 14.8302C2.75025 14.8302 2.85026 14.9602 2.86026 15.1602C2.86527 15.2535 2.86527 15.3469 2.86026 15.4402C2.85281 15.4698 2.85131 15.5005 2.85585 15.5307C2.86038 15.5608 2.87086 15.5898 2.88668 15.6158C2.9025 15.6419 2.92334 15.6645 2.94799 15.6824C2.97263 15.7003 3.0006 15.7132 3.03026 15.7202C4.03026 16.1402 4.96025 16.5702 5.92025 17.0102C6.29886 17.1822 6.71715 17.2479 7.13025 17.2002L12.8603 16.6502C13.3244 16.6177 13.7738 16.4737 14.1703 16.2302C15.4903 15.3502 16.8303 14.4902 18.1703 13.6202C18.2394 13.579 18.2998 13.5246 18.3478 13.46C18.3958 13.3955 18.4306 13.322 18.4501 13.2439C18.4697 13.1658 18.4735 13.0847 18.4615 13.0051C18.4495 12.9255 18.4219 12.8491 18.3803 12.7802C18.2969 12.6437 18.1648 12.544 18.0107 12.5012C17.8566 12.4585 17.692 12.476 17.5503 12.5502L14.9703 13.8502C14.203 14.2593 13.3578 14.5012 12.4903 14.5602L9.92025 14.7202L8.21026 14.8202C8.01026 14.8202 7.88026 14.7302 7.87026 14.5702C7.86026 14.4102 7.97025 14.2802 8.17025 14.2702L9.27026 14.2002L11.8803 14.0402C12.0403 14.0402 12.0803 13.9802 12.0803 13.8202C12.0727 13.5476 11.9677 13.2866 11.7842 13.0848C11.6007 12.883 11.351 12.7536 11.0803 12.7202C10.2903 12.6202 9.50025 12.5202 8.72025 12.4502C7.88864 12.4061 7.08255 12.1478 6.38025 11.7002C6.13292 11.5374 5.86789 11.4032 5.59026 11.3002C4.7838 11.0082 3.92661 10.8823 3.07026 10.9302C2.92026 10.9302 2.87026 10.9302 2.87026 11.1202C2.87026 11.9602 2.87026 12.8102 2.87026 13.6502V13.8002C2.8716 13.8378 2.86535 13.8753 2.85188 13.9104C2.83841 13.9456 2.818 13.9777 2.79187 14.0047C2.76573 14.0318 2.73441 14.0533 2.69977 14.068C2.66513 14.0827 2.62788 14.0903 2.59026 14.0902C2.51509 14.0876 2.44387 14.0559 2.39163 14.0018C2.33939 13.9477 2.31021 13.8754 2.31025 13.8002V10.3102C2.31025 10.0602 2.23026 9.98024 1.98026 9.97024H0.910256C0.630256 9.97024 0.560254 10.0502 0.560254 10.3402V13.4002Z" fill="black"/>
<path d="M4.14015 5.36997C4.14015 4.30746 4.45535 3.26884 5.04585 2.38553C5.63636 1.50223 6.47563 0.81396 7.45745 0.407813C8.43927 0.00166562 9.51951 -0.104096 10.5615 0.103919C11.6034 0.311933 12.5602 0.824383 13.3108 1.57639C14.0615 2.3284 14.5721 3.28613 14.7782 4.32847C14.9843 5.3708 14.8765 6.45086 14.4685 7.43192C14.0605 8.41298 13.3707 9.25096 12.4863 9.83982C11.6019 10.4287 10.5627 10.7419 9.50015 10.74C8.79542 10.74 8.09761 10.601 7.44665 10.331C6.79569 10.061 6.20437 9.66532 5.70651 9.16654C5.20866 8.66776 4.81405 8.07569 4.54528 7.42423C4.2765 6.77277 4.13883 6.0747 4.14015 5.36997ZM14.3201 5.36997C14.3201 4.41907 14.0383 3.48955 13.5102 2.69877C12.9821 1.90798 12.2315 1.29145 11.3532 0.9271C10.4748 0.56275 9.50821 0.466923 8.57543 0.651709C7.64266 0.836495 6.78558 1.29362 6.1125 1.96531C5.43941 2.637 4.98051 3.49312 4.79379 4.42551C4.60707 5.3579 4.7009 6.32469 5.06342 7.20377C5.42595 8.08286 6.0409 8.83475 6.83058 9.36448C7.62027 9.89421 8.54925 10.178 9.50015 10.18C10.1365 10.1866 10.7678 10.0671 11.3577 9.82847C11.9476 9.58982 12.4845 9.23676 12.9372 8.78959C13.39 8.34241 13.7497 7.80997 13.9956 7.22306C14.2416 6.63615 14.3689 6.00633 14.3701 5.36997H14.3201Z" fill="black"/>
<path d="M5.43016 5.35964C5.40652 4.50003 5.67437 3.65776 6.19016 2.96968C6.32016 2.77968 6.48016 2.72967 6.62016 2.82967C6.76016 2.92967 6.78016 3.09964 6.62016 3.29964C6.27615 3.77337 6.05537 4.32526 5.9777 4.90554C5.90002 5.48581 5.96789 6.07628 6.1752 6.6238C6.3825 7.17132 6.72273 7.65869 7.16525 8.04201C7.60776 8.42533 8.13867 8.69256 8.71016 8.81966C9.19051 8.93583 9.69029 8.94682 10.1753 8.85189C10.6603 8.75696 11.119 8.55837 11.5202 8.26967L11.6402 8.18965C11.6992 8.14922 11.7714 8.1329 11.8421 8.14406C11.9128 8.15522 11.9765 8.193 12.0202 8.24965C12.0446 8.2781 12.0625 8.31152 12.0728 8.34755C12.0831 8.38359 12.0855 8.42141 12.0798 8.45845C12.0741 8.49549 12.0604 8.53087 12.0398 8.56215C12.0191 8.59343 11.992 8.61987 11.9602 8.63967C11.6827 8.84943 11.3804 9.0241 11.0602 9.15969C10.4697 9.40243 9.83074 9.50424 9.19405 9.45711C8.55735 9.40998 7.94039 9.21519 7.39208 8.88814C6.84377 8.5611 6.37919 8.11078 6.03517 7.57296C5.69115 7.03513 5.47716 6.4246 5.41016 5.78969C5.42016 5.64969 5.43016 5.49964 5.43016 5.35964Z" fill="black"/>
<path d="M13.6004 5.30987C13.6172 6.07813 13.4123 6.83496 13.0104 7.48987C12.8804 7.71987 12.7304 7.78988 12.5704 7.68988C12.4104 7.58988 12.4004 7.4399 12.5704 7.2099C12.8554 6.72994 13.023 6.18938 13.0593 5.63232C13.0956 5.07527 12.9996 4.51753 12.7793 4.00464C12.5589 3.49174 12.2204 3.03819 11.7913 2.68109C11.3622 2.32399 10.8548 2.07345 10.3104 1.94989C9.43711 1.73248 8.51333 1.86907 7.74036 2.32989L7.59037 2.40991C7.55957 2.43046 7.525 2.44467 7.48866 2.45178C7.45232 2.45888 7.41494 2.45873 7.37867 2.45129C7.3424 2.44385 7.30796 2.42928 7.27736 2.40844C7.24675 2.38761 7.22058 2.36091 7.20037 2.32989C7.18597 2.29384 7.17896 2.25524 7.17975 2.21643C7.18054 2.17761 7.18912 2.13938 7.20497 2.10394C7.22082 2.0685 7.24363 2.03659 7.27204 2.01013C7.30045 1.98367 7.33389 1.96318 7.37036 1.94989C7.84755 1.64004 8.38689 1.43862 8.95037 1.35986C9.91773 1.21292 10.9057 1.41771 11.735 1.93695C12.5643 2.45619 13.18 3.25549 13.4704 4.18988C13.5689 4.55473 13.6127 4.93216 13.6004 5.30987Z" fill="black"/>
<path d="M9.55004 7.75018C9.32705 7.75153 9.11084 7.67358 8.94004 7.53021C8.83092 7.43613 8.75399 7.31019 8.72004 7.17017C8.70475 7.03727 8.70475 6.9031 8.72004 6.7702C8.72004 6.5202 8.72004 6.28022 8.72004 6.04022C8.72004 5.80022 8.72004 5.38022 8.72004 5.04022C8.73021 4.87371 8.73021 4.70673 8.72004 4.54022H8.31004C8.24075 4.53681 8.1728 4.51977 8.11005 4.49017C8.07126 4.47074 8.03752 4.44255 8.01148 4.40784C7.98545 4.37313 7.96784 4.3329 7.96004 4.29022C7.95917 4.26565 7.96528 4.24127 7.97767 4.22003C7.99006 4.19879 8.00822 4.1815 8.03004 4.17017C8.07167 4.15294 8.11842 4.15294 8.16004 4.17017H8.67004C8.65555 3.85475 8.51934 3.55728 8.29004 3.34021C8.25757 3.31901 8.23004 3.29109 8.20934 3.2583C8.18863 3.22551 8.17523 3.18864 8.17004 3.15021C8.16917 3.12563 8.17528 3.10132 8.18767 3.08008C8.20006 3.05884 8.21822 3.04155 8.24004 3.03021C8.2711 2.98741 8.31784 2.95863 8.37004 2.9502C8.43473 2.95154 8.49749 2.97246 8.55004 3.01019C8.90595 3.29042 9.13613 3.70044 9.19004 4.15021H9.59004C9.65611 4.13751 9.72398 4.13751 9.79004 4.15021C9.82853 4.1688 9.8616 4.19692 9.88611 4.23193C9.91062 4.26695 9.92575 4.3077 9.93004 4.35022C9.92993 4.39526 9.91195 4.43842 9.88004 4.47021C9.86126 4.48753 9.83919 4.50087 9.81513 4.50946C9.79108 4.51805 9.76554 4.52171 9.74004 4.5202H9.24004C9.24004 4.7502 9.24004 4.9702 9.24004 5.2002C9.24004 5.4302 9.24004 5.6602 9.24004 6.0802C9.24004 6.2702 9.24004 6.5602 9.24004 6.9502C9.23028 7.01315 9.23028 7.07724 9.24004 7.1402C9.25176 7.18863 9.28033 7.23131 9.32064 7.26062C9.36094 7.28993 9.41035 7.30394 9.46004 7.30017C9.65245 7.27939 9.83562 7.20685 9.99004 7.09021C10.2055 6.9648 10.3846 6.78561 10.51 6.57019C10.5886 6.41521 10.6297 6.24395 10.63 6.07019V5.97021C10.63 5.76355 10.53 5.65353 10.33 5.6402C10.2911 5.62723 10.249 5.62723 10.21 5.6402C10.2551 5.69663 10.2766 5.7683 10.27 5.84021C10.2725 5.89635 10.261 5.9522 10.2366 6.00281C10.2121 6.05342 10.1755 6.09718 10.13 6.13019C10.0481 6.19646 9.94544 6.23188 9.84004 6.23022C9.7486 6.23129 9.65983 6.1993 9.59004 6.1402C9.54835 6.10718 9.51554 6.06427 9.49459 6.01538C9.47363 5.96649 9.4652 5.91314 9.47004 5.86017C9.4617 5.7277 9.50068 5.59657 9.58004 5.49017C9.65936 5.39216 9.76272 5.3164 9.88004 5.2702C9.99739 5.22215 10.1233 5.19833 10.25 5.2002C10.3905 5.20067 10.5297 5.22784 10.66 5.28021C10.8275 5.35686 10.9647 5.48702 11.05 5.65021C11.1313 5.8006 11.1726 5.96929 11.17 6.1402C11.1631 6.47989 11.0355 6.80602 10.81 7.06018C10.6372 7.2293 10.4421 7.37397 10.23 7.49017C10.0286 7.63211 9.79482 7.72149 9.55004 7.75018Z" fill="black"/>
</g>
</svg>
